<?xml version="1.0" encoding="UTF-8"?>
<svg width="1024px" height="1024px" viewBox="0 0 512 512" xmlns="http://www.w3.org/2000/svg">
  <defs>
    <linearGradient id="crystalGrad" x1="0%" y1="0%" x2="100%" y2="100%">
      <stop offset="0%" stop-color="#9C8EEE" />
      <stop offset="100%" stop-color="#5F4BC9" />
    </linearGradient>
    <linearGradient id="crystalGrad2" x1="0%" y1="0%" x2="100%" y2="100%">
      <stop offset="0%" stop-color="#BEB7F4" />
      <stop offset="100%" stop-color="#7966DD" />
    </linearGradient>
    <linearGradient id="lensBg" x1="0%" y1="0%" x2="100%" y2="100%">
      <stop offset="0%" stop-color="#2196F3" />
      <stop offset="100%" stop-color="#0D47A1" />
    </linearGradient>
  </defs>
  
  <!-- Magnifying Glass -->
  <circle cx="220" cy="220" r="140" fill="white" opacity="0.12" />
  <circle cx="220" cy="220" r="120" fill="white" opacity="0.2" />
  
  <circle cx="220" cy="220" r="100" fill="url(#lensBg)" />
  <circle cx="220" cy="220" r="90" fill="rgba(255,255,255,0.1)" />
  
  <!-- Crystal in the Magnifying Glass -->
  <g transform="translate(180, 180) scale(0.6)">
    <path d="M95,60 L30,120 L30,220 L110,280 L190,220 L190,120 Z" fill="url(#crystalGrad)" />
    <path d="M95,60 L30,120 L110,170 L190,120 Z" fill="url(#crystalGrad2)" opacity="0.9" />
    <path d="M30,120 L30,220 L110,170 Z" fill="#6553D4" opacity="0.7" />
    <path d="M190,120 L190,220 L110,170 Z" fill="#4A3DBB" opacity="0.8" />
    
    <!-- Sparkle effect -->
    <circle cx="80" cy="100" r="12" fill="white" opacity="0.8" />
    <circle cx="85" cy="95" r="6" fill="white" opacity="0.9" />
    
    <!-- Scan line -->
    <line x1="40" y1="140" x2="170" y2="140" stroke="rgba(255,255,255,0.8)" stroke-width="3" stroke-dasharray="8 4" />
  </g>
  
  <!-- Magnifying Glass Handle -->
  <path d="M310,310 L390,390" stroke="#0D47A1" stroke-width="25" stroke-linecap="round" />
  <path d="M310,310 L390,390" stroke="#2196F3" stroke-width="20" stroke-linecap="round" />
  
  <!-- Scan effects -->
  <circle cx="220" cy="220" r="110" stroke="#4FC3F7" stroke-width="2" stroke-dasharray="10 5" fill="none" opacity="0.6" />
</svg>