<?xml version="1.0" encoding="UTF-8"?>
<svg viewBox="0 0 512 512" xmlns="http://www.w3.org/2000/svg">
  <defs>
    <linearGradient id="cameraGrad" x1="0%" y1="0%" x2="100%" y2="100%">
      <stop offset="0%" stop-color="#455A64" />
      <stop offset="100%" stop-color="#263238" />
    </linearGradient>
    <linearGradient id="lensGrad" x1="0%" y1="0%" x2="100%" y2="100%">
      <stop offset="0%" stop-color="#78909C" />
      <stop offset="100%" stop-color="#37474F" />
    </linearGradient>
    <linearGradient id="crystalGrad" x1="0%" y1="0%" x2="100%" y2="100%">
      <stop offset="0%" stop-color="#FFEB3B" />
      <stop offset="100%" stop-color="#FF9800" />
    </linearGradient>
    <filter id="shadow" x="-20%" y="-20%" width="140%" height="140%">
      <feGaussianBlur in="SourceAlpha" stdDeviation="3"/>
      <feOffset dx="2" dy="4" result="offsetblur"/>
      <feComponentTransfer>
        <feFuncA type="linear" slope="0.3"/>
      </feComponentTransfer>
      <feMerge> 
        <feMergeNode/>
        <feMergeNode in="SourceGraphic"/> 
      </feMerge>
    </filter>
  </defs>
  
  <!-- Background Elements -->
  <circle cx="256" cy="256" r="160" fill="white" opacity="0.08" />
  <circle cx="256" cy="256" r="130" fill="white" opacity="0.05" />
  
  <!-- Camera Body -->
  <g transform="translate(256, 256)" filter="url(#shadow)">
    <rect x="-120" y="-90" width="240" height="180" rx="15" fill="url(#cameraGrad)" />
    <rect x="-130" y="-105" width="260" height="25" rx="10" fill="#37474F" />
    
    <!-- Camera Controls -->
    <circle cx="90" cy="-75" r="15" fill="#546E7A" />
    <circle cx="90" cy="-75" r="10" fill="#B0BEC5" />
    
    <!-- Flash -->
    <rect x="-100" y="-90" width="20" height="20" rx="3" fill="#B0BEC5" />
    <rect x="-95" y="-85" width="10" height="10" fill="#ECEFF1" />
    
    <!-- Lens -->
    <circle cx="0" cy="0" r="70" fill="url(#lensGrad)" />
    <circle cx="0" cy="0" r="60" fill="#263238" />
    <circle cx="0" cy="0" r="50" fill="#1E272C" />
    
    <!-- Lens Elements -->
    <circle cx="0" cy="0" r="40" fill="none" stroke="#455A64" stroke-width="1" />
    <circle cx="0" cy="0" r="30" fill="none" stroke="#455A64" stroke-width="1" />
    <circle cx="0" cy="0" r="20" fill="none" stroke="#455A64" stroke-width="1" />
    
    <!-- Lens Reflection -->
    <circle cx="-15" cy="-15" r="8" fill="white" opacity="0.4" />
    <circle cx="-10" cy="-10" r="3" fill="white" opacity="0.6" />
  </g>
  
  <!-- Viewfinder Frame -->
  <g transform="translate(256, 256)" opacity="0.9">
    <!-- Corner markers -->
    <path d="M-80,-80 L-80,-60 M-80,-80 L-60,-80" stroke="white" stroke-width="3" />
    <path d="M80,-80 L80,-60 M80,-80 L60,-80" stroke="white" stroke-width="3" />
    <path d="M-80,80 L-80,60 M-80,80 L-60,80" stroke="white" stroke-width="3" />
    <path d="M80,80 L80,60 M80,80 L60,80" stroke="white" stroke-width="3" />
  </g>
  
  <!-- Crystal being photographed -->
  <g transform="translate(256, 260) scale(0.5)">
    <path d="M95,60 L30,120 L30,220 L110,280 L190,220 L190,120 Z" fill="url(#crystalGrad)" filter="url(#shadow)" />
    <path d="M95,60 L30,120 L110,170 L190,120 Z" fill="#FFF176" opacity="0.9" />
    <path d="M30,120 L30,220 L110,170 Z" fill="#FFC107" opacity="0.7" />
    <path d="M190,120 L190,220 L110,170 Z" fill="#FF9800" opacity="0.8" />
    
    <!-- Sparkle effect -->
    <circle cx="80" cy="100" r="8" fill="white" opacity="0.8" />
    <circle cx="85" cy="95" r="4" fill="white" opacity="0.9" />
  </g>
  
  <!-- Scan Line Animation -->
  <line x1="176" y1="240" x2="336" y2="240" stroke="#4FC3F7" stroke-width="2" stroke-dasharray="8 4">
    <animate attributeName="y1" attributeName="y2" values="220;300;220" dur="3s" repeatCount="indefinite" />
    <animate attributeName="opacity" values="0.8;0.2;0.8" dur="3s" repeatCount="indefinite" />
  </line>
  
  <!-- Permission Icon -->
  <g transform="translate(380, 130)">
    <circle cx="0" cy="0" r="30" fill="white" filter="url(#shadow)" />
    <path d="M-15,-5 L-5,5 L15,-15" stroke="#4CAF50" stroke-width="4" fill="none" stroke-linecap="round" stroke-linejoin="round" />
  </g>
  
  <!-- Light Effect -->
  <circle cx="190" cy="190" r="20" fill="white" opacity="0.1">
    <animate attributeName="opacity" values="0.1;0.3;0.1" dur="2s" repeatCount="indefinite" />
  </circle>
</svg>